<?xml version="1.0" standalone="no"?>
<!DOCTYPE svg PUBLIC "-//W3C//DTD SVG 20010904//EN"
 "http://www.w3.org/TR/2001/REC-SVG-20010904/DTD/svg10.dtd">
<svg version="1.0" xmlns="http://www.w3.org/2000/svg"
 width="300.000000pt" height="300.000000pt" viewBox="0 0 300.000000 300.000000"
 preserveAspectRatio="xMidYMid meet">
<metadata>
Created by potrace 1.10, written by Peter Selinger 2001-2011
</metadata>
<g transform="translate(0.000000,300.000000) scale(0.100000,-0.100000)"
fill="#000000" stroke="none">
<path d="M1287 2775 c-48 -8 -134 -30 -191 -49 -492 -165 -825 -583 -877
-1103 -46 -452 178 -922 561 -1175 113 -75 193 -113 314 -153 154 -50 223 -60
401 -60 172 0 263 14 405 61 439 146 773 535 856 993 21 115 20 331 -1 446
-92 507 -478 910 -985 1026 -114 27 -362 34 -483 14z m203 -59 l0 -63 91 -7
c90 -7 188 -22 197 -30 2 -3 -2 -28 -9 -56 l-13 -52 -36 6 c-151 27 -346 26
-448 -3 -31 -9 -31 -9 -47 44 -8 29 -15 58 -15 64 0 6 -3 11 -7 11 -13 0 -185
-66 -232 -89 -25 -11 -46 -21 -47 -21 -4 0 -54 93 -52 95 12 10 106 53 177 80
120 46 278 78 409 84 l32 1 0 -64z m235 38 c122 -21 370 -112 388 -141 3 -5
-19 -52 -48 -104 -30 -52 -56 -98 -58 -102 -1 -4 -27 6 -57 22 -30 17 -83 40
-117 52 -35 11 -63 24 -63 29 0 4 7 27 15 51 9 24 14 48 11 55 -7 18 -91 35
-198 41 l-98 6 0 59 0 60 73 -7 c39 -3 108 -13 152 -21z m-500 -251 c15 -60
30 -113 32 -119 2 -6 -29 -23 -70 -38 -91 -33 -194 -93 -265 -153 l-54 -46
-131 132 -132 132 50 46 c53 48 183 143 196 143 5 0 20 -21 35 -47 15 -27 29
-49 30 -51 1 -2 17 4 36 14 40 21 219 93 233 93 6 1 24 -47 40 -106z m993 45
c97 -66 242 -210 310 -307 29 -41 52 -80 52 -85 0 -6 -22 -23 -49 -39 l-49
-27 24 -44 c27 -48 84 -198 84 -220 0 -12 -97 -45 -103 -35 -1 2 -13 38 -27
79 -29 87 -108 218 -186 307 -48 54 -140 134 -229 198 l-28 21 57 102 c32 56
60 102 63 102 3 0 39 -24 81 -52z m-728 -93 l0 -65 37 0 c46 0 165 -20 176
-29 4 -4 2 -31 -5 -60 -9 -41 -15 -50 -27 -45 -9 3 -53 8 -98 11 l-83 6 0 -67
0 -66 -37 0 c-21 0 -55 -4 -76 -9 -35 -8 -38 -7 -44 18 -3 14 -25 97 -48 183
l-41 157 50 10 c80 16 98 18 149 20 l47 1 0 -65z m247 39 c78 -18 253 -92 253
-105 0 -5 -42 -80 -92 -168 l-93 -158 -50 23 c-66 30 -159 54 -212 54 l-43 0
0 61 0 62 59 -6 c33 -4 78 -9 100 -13 39 -6 40 -6 50 32 25 96 25 91 -11 103
-18 7 -70 15 -115 18 l-83 6 0 60 0 60 85 -6 c47 -3 115 -13 152 -23z m-1009
-226 l131 -131 -32 -37 c-18 -19 -48 -57 -66 -84 -21 -30 -38 -45 -47 -42 -8
3 -57 30 -110 61 -53 30 -100 52 -106 49 -12 -8 -59 -108 -90 -192 -11 -31
-23 -60 -27 -64 -6 -6 -52 2 -98 17 -26 9 76 245 160 370 33 50 144 185 151
185 1 0 61 -59 134 -132z m1346 67 c33 -24 77 -58 96 -74 l35 -30 -134 -135
-134 -134 -56 46 c-31 25 -56 49 -56 53 0 8 178 318 184 319 2 0 31 -20 65
-45z m-757 -203 c-2 -11 -107 -62 -128 -62 -3 0 -18 23 -33 50 -15 28 -33 50
-39 50 -15 0 -49 -23 -111 -74 l-47 -39 -39 38 c-22 22 -40 35 -40 30 0 -5 37
-47 82 -92 l81 -82 -29 -33 c-16 -18 -36 -44 -44 -57 l-16 -23 -52 26 c-28 14
-55 26 -60 26 -8 0 -59 -103 -76 -153 -6 -19 -36 -18 -94 4 l-22 9 24 63 c95
253 270 425 531 523 l60 22 27 -107 c15 -58 27 -112 25 -119z m965 11 c30 -38
63 -80 72 -94 l17 -26 -110 -60 -110 -60 -36 52 c-20 29 -45 61 -56 71 -20 18
-19 19 67 105 48 49 91 86 94 84 4 -3 32 -35 62 -72z m-1132 -44 c14 -24 41
-69 58 -101 l32 -56 -49 -36 c-27 -20 -66 -59 -87 -86 l-37 -49 -49 27 c-26
15 -48 30 -48 34 0 4 21 33 46 64 l46 56 -47 48 -46 47 42 34 c59 47 92 68
104 65 5 -1 21 -22 35 -47z m1483 -36 c47 -99 81 -200 104 -305 22 -102 25
-380 5 -473 -22 -102 -15 -94 -76 -77 -52 14 -54 16 -45 41 10 31 29 181 29
233 l0 38 -63 0 -63 0 -13 108 c-7 59 -14 116 -14 126 -2 16 9 22 56 34 34 9
57 20 57 28 0 20 -53 162 -82 219 l-25 49 41 27 c22 15 44 28 47 28 3 1 22
-34 42 -76z m-1143 -120 l0 -188 -54 -16 c-49 -14 -54 -14 -63 0 -5 9 -19 32
-31 52 l-22 37 45 13 c25 7 45 18 45 24 0 5 -8 37 -18 70 -21 67 -25 68 -96
34 -22 -10 -41 -19 -42 -19 -4 0 -54 92 -54 100 0 21 179 73 268 79 l22 1 0
-187z m155 166 c199 -43 400 -242 449 -445 8 -33 16 -78 19 -101 l5 -43 -58 0
-59 0 -6 38 c-19 123 -48 202 -75 202 -5 0 -31 -13 -56 -29 l-46 -28 -65 66
c-48 50 -62 70 -55 81 57 94 104 181 100 186 -3 3 -47 -67 -98 -154 l-93 -160
-33 14 c-18 8 -43 14 -54 14 -19 0 -20 6 -20 191 l0 191 48 -6 c26 -4 70 -11
97 -17z m-1031 -96 c55 -31 102 -57 104 -58 1 -1 -13 -35 -32 -76 -19 -41 -38
-87 -41 -102 -5 -19 -12 -26 -24 -23 -83 24 -104 27 -111 15 -10 -15 -27 -105
-35 -186 l-7 -63 -119 0 -119 0 0 53 c0 61 28 238 40 250 4 5 33 2 64 -7 56
-14 57 -14 65 7 5 12 18 49 30 81 27 73 71 166 78 166 3 0 51 -25 107 -57z
m1471 -40 c84 -108 138 -245 152 -385 l6 -68 -57 0 c-54 0 -56 1 -56 28 -1
102 -61 256 -137 349 l-45 55 38 39 c21 21 42 39 46 39 4 0 28 -26 53 -57z
m335 -45 c49 -107 57 -144 33 -152 -117 -34 -217 -56 -223 -49 -4 4 -13 26
-20 48 -7 22 -21 57 -31 77 l-19 37 43 24 c23 14 69 41 102 60 33 19 64 36 68
36 5 1 26 -36 47 -81z m-1042 1 c14 -61 15 -69 3 -69 -5 0 -25 -7 -45 -15
l-36 -15 36 -56 35 -55 -40 -41 -41 -40 -105 62 c-120 71 -119 64 -31 152 49
49 172 127 202 128 6 0 16 -23 22 -51z m-396 -126 l76 -44 -21 -52 c-12 -29
-22 -53 -23 -55 -1 -2 -30 4 -64 13 -34 9 -64 14 -67 12 -2 -3 -7 -39 -10 -81
l-6 -76 -55 0 -55 0 6 88 c6 84 25 156 62 234 l18 37 31 -16 c17 -9 65 -36
108 -60z m771 -53 c31 -33 59 -60 63 -60 4 0 29 14 56 30 l49 30 24 -52 c13
-29 27 -81 31 -115 l7 -63 -127 0 c-124 0 -126 0 -126 23 0 36 -45 121 -79
149 l-31 27 27 45 c15 25 33 46 39 46 7 0 37 -27 67 -60z m-1002 -53 c1 -4 -2
-45 -6 -92 l-7 -85 -69 0 -69 0 0 -44 c0 -40 14 -129 26 -168 4 -13 -7 -20
-48 -32 -38 -11 -54 -12 -59 -4 -30 48 -36 329 -10 444 l12 51 115 -32 c63
-17 115 -34 115 -38z m1738 -14 c7 -49 14 -107 17 -130 l5 -43 59 0 c32 0 61
-3 63 -7 6 -12 -12 -192 -24 -235 -5 -21 -15 -38 -22 -37 -7 0 -59 13 -117 28
-118 32 -110 21 -91 131 6 36 11 80 11 98 l0 32 -65 0 c-45 0 -65 4 -65 13 0
13 -18 139 -22 158 -2 8 174 67 233 78 4 0 12 -38 18 -86z m-1322 13 c1 -1 -7
-26 -17 -56 -11 -30 -19 -70 -20 -87 l0 -33 -126 0 -127 0 7 67 c4 37 9 69 11
71 2 3 32 -2 65 -11 60 -15 61 -15 69 6 5 12 16 39 25 60 l15 38 48 -27 c27
-15 49 -28 50 -28z m323 0 c0 -41 -2 -45 -30 -51 -30 -7 -80 -56 -80 -79 0 -9
-31 -4 -110 18 -115 31 -126 40 -96 81 13 18 15 17 66 -14 l53 -33 32 35 c38
42 110 81 158 86 4 1 7 -19 7 -43z m83 24 c76 -28 124 -85 142 -167 l7 -33
-50 0 c-49 0 -50 1 -56 34 -7 39 -65 96 -96 96 -17 0 -20 7 -20 45 0 25 4 45
10 45 5 0 33 -9 63 -20z m-10 -107 c11 -10 26 -33 34 -50 11 -28 11 -38 0 -65
-22 -51 -53 -73 -103 -73 -105 0 -142 139 -52 195 38 24 89 21 121 -7z m-338
-32 c39 -11 89 -24 113 -31 60 -16 52 -30 -18 -30 -60 0 -60 0 -60 -29 0 -27
-5 -31 -52 -44 -140 -40 -179 -49 -184 -45 -2 3 -7 28 -11 57 l-6 51 67 0 c62
0 66 1 66 23 0 20 10 67 14 67 1 0 33 -9 71 -19z m-747 -169 c14 -121 53 -257
96 -339 l33 -63 -43 -25 c-23 -14 -47 -25 -53 -25 -13 0 -49 70 -86 170 -16
41 -32 79 -35 83 -4 5 -33 2 -64 -7 -43 -11 -58 -11 -61 -3 -12 33 -35 197
-35 248 l0 59 119 0 118 0 11 -98z m517 86 c2 -7 5 -34 8 -59 l4 -47 -181 -49
-181 -49 -12 46 c-6 25 -12 73 -12 108 l-1 62 185 0 c140 0 187 -3 190 -12z
m385 -2 c0 -8 11 -28 25 -44 14 -17 25 -34 25 -38 0 -5 -13 -28 -29 -52 -24
-37 -30 -41 -41 -27 -19 23 -30 19 -77 -27 l-42 -41 -20 24 c-28 32 -73 123
-64 126 122 33 123 33 116 64 l-5 29 56 0 c42 0 56 -4 56 -14z m336 -20 l-6
-34 65 -12 c36 -7 65 -14 65 -16 0 -10 -51 -101 -69 -124 l-20 -25 -44 44 -45
43 -47 -27 c-25 -15 -50 -24 -54 -19 -4 5 -13 28 -20 52 -11 40 -11 44 11 62
13 11 26 19 29 20 4 0 14 16 23 35 16 33 20 35 68 35 l50 0 -6 -34z m391 -33
c-4 -37 -10 -70 -15 -75 -4 -4 -30 -1 -58 7 -62 19 -74 19 -74 0 0 -15 -37
-95 -44 -95 -6 0 -96 51 -96 55 0 1 7 16 15 31 27 52 21 62 -45 75 -52 10 -60
15 -60 34 0 12 3 25 7 28 3 4 89 7 191 7 l185 0 -6 -67z m263 18 c0 -70 -22
-172 -36 -167 -6 2 -58 17 -115 32 -57 15 -105 28 -107 29 -1 1 3 36 9 78 l11
77 119 -3 119 -2 0 -44z m-1215 -88 c9 -21 30 -55 47 -76 l30 -39 -38 -39
c-21 -21 -41 -39 -45 -39 -4 0 -22 20 -40 45 -18 25 -36 45 -41 45 -4 0 -30
-13 -56 -30 -27 -16 -52 -30 -55 -30 -7 0 -59 131 -54 137 5 5 206 61 224 62
7 1 20 -16 28 -36z m305 30 c0 -7 -62 -227 -65 -230 -2 -4 -82 38 -120 62
l-30 19 23 -26 c13 -15 46 -36 73 -47 27 -12 49 -25 49 -28 0 -9 -61 -227 -65
-231 -5 -6 -125 51 -125 59 0 5 13 30 30 57 27 42 28 48 13 57 -9 6 -31 23
-50 39 l-34 29 87 88 c79 80 90 87 104 74 26 -23 34 -19 65 35 27 44 45 62 45
43z m71 -59 c7 -30 15 -57 19 -59 4 -3 30 7 59 21 l51 26 39 -34 c22 -18 40
-35 40 -38 2 -10 -95 -70 -138 -85 -45 -16 -157 -20 -178 -7 -8 5 -4 35 18
112 38 136 35 129 58 123 15 -4 23 -19 32 -59z m632 -18 c93 -25 171 -47 173
-49 5 -5 -51 -163 -65 -186 -9 -14 -9 -14 -248 126 l-93 54 20 37 c11 20 20
42 20 49 0 19 8 17 193 -31z m-1262 -23 c6 -21 20 -55 31 -76 l19 -38 53 31
c29 16 57 30 62 30 5 -1 23 -20 41 -44 l31 -43 -87 -87 -88 -88 -41 47 c-23
26 -53 67 -67 91 -25 42 -75 165 -75 183 0 9 59 28 92 30 11 1 21 -12 29 -36z
m1070 -73 c85 -49 159 -91 164 -93 26 -9 -125 -172 -217 -235 l-47 -33 -26 52
c-15 28 -25 52 -23 53 2 1 19 13 38 26 19 13 47 35 62 48 l28 26 -97 92 -97
93 29 31 c16 16 29 30 30 30 1 0 71 -40 156 -90z m-1181 3 c35 -92 73 -155
123 -210 l40 -44 -39 -40 -39 -40 -41 45 c-23 25 -59 71 -80 103 -44 66 -108
207 -102 225 4 12 83 38 101 34 5 -1 21 -34 37 -73z m-140 -8 c29 -93 101
-214 174 -293 l40 -43 -135 -135 -134 -135 -49 53 c-98 107 -194 272 -250 426
-14 40 -26 75 -26 76 0 5 85 26 103 26 8 0 19 -19 26 -42 19 -64 92 -218 104
-218 15 0 117 60 117 69 0 5 -11 28 -25 53 -25 44 -78 178 -73 183 9 8 104 31
109 26 4 -3 12 -24 19 -46z m2042 -39 l27 -6 -30 -88 c-39 -109 -84 -199 -145
-288 -58 -84 -134 -176 -144 -172 -5 2 -45 38 -90 81 l-81 79 25 31 c45 55
126 170 126 178 0 5 -24 22 -53 39 l-54 30 27 54 c15 30 33 76 40 103 l13 49
156 -41 c86 -23 168 -45 183 -49z m-855 -26 l90 -90 -21 -18 c-32 -28 -83 -62
-94 -62 -5 0 -15 12 -21 28 -6 15 -20 38 -30 51 l-18 23 -52 -22 c-30 -13 -55
-19 -60 -14 -9 10 -34 95 -29 98 2 2 27 16 55 31 29 15 60 36 69 46 10 11 18
19 19 19 1 0 43 -40 92 -90z m-666 -27 c8 -9 26 -24 41 -33 l27 -16 -91 -160
c-50 -87 -93 -161 -94 -163 -4 -5 -138 95 -155 115 -11 13 6 33 117 145 71 71
132 129 135 129 4 0 13 -7 20 -17z m430 -40 c7 -30 16 -56 21 -59 5 -3 34 4
64 16 30 13 56 21 58 19 2 -2 15 -25 30 -51 l27 -46 -83 -33 c-80 -32 -88 -34
-220 -34 -79 0 -141 4 -146 10 -6 6 3 53 21 121 l31 111 92 0 92 -1 13 -53z
m605 1 c24 -14 44 -29 44 -33 0 -3 -29 -43 -64 -88 -95 -119 -222 -216 -353
-268 -106 -42 -100 -43 -117 16 -9 29 -15 53 -13 55 1 1 30 13 64 27 125 51
272 164 350 269 19 26 37 48 40 48 2 0 24 -12 49 -26z m152 -90 c7 -5 -29 -62
-79 -124 -28 -36 -56 -71 -62 -78 -7 -9 15 -36 83 -99 l93 -87 -54 -48 c-56
-50 -198 -153 -203 -147 -1 2 -44 76 -95 164 -78 134 -90 161 -78 170 141 98
218 172 275 262 l27 42 45 -26 c25 -14 46 -27 48 -29z m-1080 -80 c35 -13 97
-29 138 -35 l74 -11 0 -56 0 -55 -74 6 c-41 3 -84 10 -95 17 -25 13 -25 13
-66 -141 l-28 -107 -66 23 c-55 18 -146 59 -159 70 -2 2 38 76 90 164 69 121
97 160 108 155 8 -3 43 -17 78 -30z m556 -10 c14 -26 26 -48 26 -49 0 -4 -159
-75 -169 -75 -5 0 -3 -23 5 -52 7 -29 14 -58 14 -64 0 -14 -96 -34 -162 -34
l-48 0 0 118 0 119 83 12 c45 7 111 25 147 41 36 15 68 28 72 29 3 1 18 -20
32 -45z m-841 -133 c26 -17 47 -34 47 -37 0 -2 -14 -29 -31 -59 l-30 -54 58
-29 c32 -16 86 -40 121 -52 34 -12 62 -25 62 -29 0 -11 -59 -223 -63 -228 -8
-7 -128 37 -213 77 -99 48 -211 122 -284 189 l-55 50 134 135 135 135 36 -33
c20 -17 57 -47 83 -65z m420 -23 l77 -11 0 -128 0 -129 33 0 c17 0 77 7 131
15 55 8 100 14 101 13 7 -11 27 -100 23 -104 -8 -8 -145 -32 -220 -39 l-68 -7
0 -63 0 -64 -67 5 c-38 3 -110 12 -161 21 -77 12 -92 18 -87 31 3 9 34 121 68
249 50 189 65 232 77 227 8 -3 50 -11 93 -16z m616 -181 c51 -86 90 -161 87
-166 -8 -12 -128 -69 -195 -92 -89 -31 -201 -57 -271 -64 -36 -3 -84 -8 -107
-11 l-43 -5 0 59 0 59 82 7 c92 8 218 34 218 45 0 14 -32 116 -38 123 -4 3
-38 0 -77 -7 -38 -7 -96 -15 -127 -17 l-58 -5 0 58 0 57 68 7 c95 10 240 48
309 82 32 15 59 28 59 28 1 0 43 -71 93 -158z"/>
</g>
</svg>
