<?xml version="1.0" encoding="UTF-8"?>
<svg id="Capa_1" data-name="Capa 1" xmlns="http://www.w3.org/2000/svg" viewBox="0 0 500 500">
  <defs>
    <style>
      .cls-1 {
        fill: none;
        stroke: #fff;
        stroke-miterlimit: 10;
        stroke-width: .25px;
      }
    </style>
  </defs>
  <path class="cls-1" d="M466.23,250c0,.25,0,.49,0,.74-.06,19.71-2.76,38.81-7.77,56.94l-19.91-5.48c4.53-16.38,6.97-33.64,7.03-51.46h-22.44c0-.25,0-.49,0-.74,0-15.36-2-30.25-5.76-44.42l21.68-5.83c-4.39-16.6-10.92-32.32-19.27-46.88l17.87-10.32c9.24,16.09,16.46,33.49,21.33,51.84,4.71,17.74,7.22,36.39,7.22,55.61Z"/>
  <path class="cls-1" d="M358.81,63.11l-10.38,17.83-11.3,19.41c-13.18-7.7-27.46-13.7-42.57-17.71l5.69-21.72c-16.04-4.26-32.87-6.52-50.25-6.52v-20.63c19.18,0,37.78,2.5,55.49,7.19,18.91,5.01,36.81,12.52,53.32,22.15Z"/>
  <path class="cls-1" d="M300.25,60.93l-5.69,21.72c-14.21-3.78-29.15-5.79-44.56-5.79s-30.36,2.01-44.59,5.8l-5.85-21.67c-16.45,4.36-32.04,10.83-46.47,19.08-.36,.2-.72,.42-1.07,.63l-10.35-17.86c16.29-9.45,33.91-16.83,52.52-21.79,17.8-4.75,36.51-7.27,55.81-7.27v20.63c17.38,0,34.21,2.26,50.25,6.52Z"/>
  <path class="cls-1" d="M288.55,105.54h0s-5.64,21.54-5.64,21.54c-10.5-2.79-21.53-4.28-32.91-4.28v20.79c-9.4,0-18.52,1.22-27.2,3.51l-5.43-20.1-5.8-21.49-6.17-22.86c14.23-3.79,29.18-5.8,44.59-5.8v23.67c13.33,0,26.25,1.75,38.55,5.02Z"/>
  <path class="cls-1" d="M337.13,100.35l-11.9,20.45-11.16,19.17-10.52,18.08c-15.73-9.19-34.02-14.45-53.54-14.45v-20.79c11.38,0,22.41,1.48,32.91,4.28l5.64-21.53h0c-12.3-3.28-25.22-5.03-38.55-5.03v-23.67c15.41,0,30.35,2.01,44.56,5.79,15.11,4.01,29.39,10.01,42.57,17.71Z"/>
  <path class="cls-1" d="M356.4,250c0,.25,0,.49,0,.74h-22.23c0-.25,0-.49,0-.74,0-15.05-3.95-29.18-10.88-41.41l-20.74,11.98c-5.26-9.39-12.96-17.22-22.25-22.63l12.05-20.7,11.19-19.2c8.14,4.74,15.6,10.55,22.18,17.22,6.54,6.62,12.21,14.08,16.83,22.22,8.82,15.5,13.86,33.42,13.86,52.52Z"/>
  <path class="cls-1" d="M372.92,128.06l-47.2,47.2c-6.57-6.67-14.03-12.48-22.18-17.22l10.52-18.08,11.16-19.17,11.9-20.45c.06,.03,.13,.07,.2,.11,13.06,7.64,25.02,16.93,35.6,27.61Z"/>
  <path class="cls-1" d="M400.37,164.09l-20.5,11.84-18.97,10.96c-5.6-9.7-12.44-18.61-20.3-26.5l32.33-32.33c10.64,10.72,19.89,22.83,27.45,36.03Z"/>
  <path class="cls-1" d="M417.39,205.58l-22.86,6.14-20.99,5.64c-2.91-10.79-7.19-21.01-12.65-30.47l18.97-10.96,20.5-11.84c7.37,12.88,13.15,26.8,17.02,41.49Z"/>
  <path class="cls-1" d="M356.39,250.74c0-.25,0-.49,0-.74,0-19.11-5.04-37.03-13.86-52.52-4.62-8.14-10.29-15.6-16.83-22.22l14.87-14.87c7.87,7.89,14.71,16.79,20.3,26.5,5.46,9.46,9.74,19.68,12.65,30.47,2.87,10.64,4.4,21.83,4.4,33.38h-21.55Z"/>
  <path class="cls-1" d="M445.58,250.74c-.06,17.82-2.5,35.07-7.03,51.46l-21.64-5.95-22.82-6.28c3.46-12.5,5.33-25.64,5.4-39.23h-21.54c0-11.55-1.53-22.74-4.4-33.38l20.99-5.64,22.86-6.14c3.76,14.18,5.76,29.07,5.76,44.42,0,.25,0,.49,0,.74h22.44Z"/>
  <path class="cls-1" d="M356.39,250.74c-.06,9.62-1.4,18.94-3.87,27.79l-21.43-5.9h0c-1.98,7.13-4.88,13.88-8.56,20.11l-20.74-11.98c2.68-4.49,4.78-9.35,6.22-14.49l-21.22-5.84c.87-3.09,1.37-6.34,1.43-9.7h68.18Z"/>
  <path class="cls-1" d="M394.08,289.97c-3.48,12.55-8.54,24.45-14.98,35.44l-18.33-10.58-18.99-10.96-19.25-11.11c3.68-6.23,6.58-12.98,8.56-20.11h0l21.43,5.9,20.97,5.77,20.58,5.67Z"/>
  <path class="cls-1" d="M458.45,307.68c-4.99,18.1-12.29,35.24-21.55,51.1-9.39,16.12-20.82,30.91-33.92,44.02l-14.59-14.59-15.87-15.87c10.45-10.46,19.57-22.26,27.07-35.1l-20.5-11.83c6.44-10.99,11.51-22.89,14.98-35.44l22.82,6.28,21.64,5.95,19.91,5.48Z"/>
  <path class="cls-1" d="M379.09,325.4c-6.47,11.05-14.32,21.2-23.3,30.2-9.14,9.15-19.45,17.12-30.69,23.67-11.35,6.6-23.63,11.75-36.61,15.2l-5.43-20.1c11.21-2.98,21.81-7.45,31.59-13.19,9.63-5.65,18.47-12.53,26.28-20.43,7.66-7.74,14.33-16.45,19.83-25.93l18.33,10.58Z"/>
  <path class="cls-1" d="M358.48,437.09c-16.3,9.47-33.96,16.88-52.6,21.85-17.82,4.75-36.56,7.29-55.88,7.29v-20.63c17.47,0,34.39-2.29,50.5-6.58l-5.85-21.68c-14.25,3.8-29.21,5.82-44.65,5.82v-23.67c13.31,0,26.21-1.74,38.49-5.01,12.98-3.44,25.26-8.6,36.61-15.2l11.83,20.5,11.23,19.44,10.32,17.87Z"/>
  <path class="cls-1" d="M190.97,310.01l-31.32,31.32c-7.94-7.9-14.84-16.85-20.49-26.62-5.54-9.59-9.87-19.96-12.79-30.91l21-5.64c2.47,9.07,6.13,17.65,10.79,25.58l19.25-11.11c3.75,6.39,8.32,12.22,13.57,17.38Z"/>
  <path class="cls-1" d="M159.65,341.33l-14.86,14.86c-9.27-9.17-17.34-19.56-23.96-30.9-6.52-11.14-11.63-23.21-15.09-35.94l20.62-5.54c2.92,10.95,7.25,21.32,12.79,30.91,5.65,9.77,12.55,18.72,20.49,26.62Z"/>
  <path class="cls-1" d="M144.79,356.19l-16.74,16.74-15.87,15.87-14.59,14.59c-13.38-13.29-25.02-28.31-34.58-44.72-9.39-16.12-16.76-33.57-21.74-51.99l19.93-5.36c4.52,16.67,11.19,32.45,19.68,47.03l19.44-11.23c-7.54-12.91-13.45-26.88-17.45-41.63l22.86-6.15c3.46,12.74,8.57,24.8,15.09,35.94,6.62,11.34,14.69,21.72,23.96,30.9Z"/>
  <path class="cls-1" d="M100.34,337.12l-19.44,11.23c-8.5-14.58-15.17-30.36-19.68-47.03l-19.93,5.36c-4.83-17.84-7.44-36.59-7.5-55.94h43.08c.05,15.48,2.16,30.49,6.03,44.75,4,14.75,9.91,28.72,17.45,41.63Z"/>
  <path class="cls-1" d="M191.78,234.53c-1.31,4.94-2.01,10.13-2.01,15.48,0,.25,0,.5,0,.74h-46.17c0-.25,0-.49,0-.74,0-9.34,1.21-18.4,3.47-27.03l21.52,5.55c1.85-7.06,4.6-13.76,8.13-19.97l20.76,11.98c-2.46,4.36-4.38,9.05-5.69,13.99Z"/>
  <path class="cls-1" d="M120.14,175.9c-6.44,11.26-11.46,23.45-14.81,36.3l-22.92-5.93c-3.64,13.97-5.57,28.63-5.57,43.73,0,.25,0,.49,0,.74H33.78c0-.25,0-.49,0-.74,0-18.83,2.4-37.1,6.93-54.51l19.99,5.16c4.4-16.94,11.02-32.99,19.52-47.81l19.44,11.22,20.5,11.83Z"/>
  <path class="cls-1" d="M222.8,147.11c-9.23,2.43-17.97,6.07-26.04,10.75l-10.49-18.09c-9.54,5.5-18.33,12.19-26.12,19.88l-15.6-15.6c9.11-9.07,19.38-16.98,30.59-23.46,11.28-6.55,23.51-11.66,36.42-15.07l5.8,21.49,5.43,20.1Z"/>
  <path class="cls-1" d="M144.56,144.04c-9.49,9.44-17.72,20.15-24.42,31.85l-20.5-11.83-19.44-11.22c-8.51,14.82-15.12,30.87-19.52,47.81l-19.99-5.16c9.86-37.96,29.76-71.86,56.71-98.69l14.55,14.64,.75,.75,31.86,31.86Z"/>
  <path class="cls-1" d="M211.57,105.51c-12.92,3.42-25.14,8.52-36.42,15.07-11.2,6.48-21.48,14.39-30.59,23.46l-31.86-31.86-.75-.75-14.55-14.64c13.18-13.13,28.06-24.57,44.26-33.97l10.35,17.86c.35-.21,.71-.43,1.07-.63,14.43-8.25,30.03-14.72,46.47-19.08l5.85,21.67,6.17,22.86Z"/>
  <path class="cls-1" d="M232.51,250.74h-20.72c.06,3.36,.56,6.63,1.44,9.72l-21.25,5.71-23.13,6.22c-1.91-6.9-2.95-14.16-3.01-21.65h23.95c0-.24,0-.49,0-.74,0-5.35,.7-10.54,2.01-15.48l21.31,5.5,.2,.05,19.87,5.13c-.44,1.53-.67,3.13-.67,4.8,0,.25,0,.5,.02,.74Z"/>
  <path class="cls-1" d="M250,211.77v20.72c-8,0-14.75,5.38-16.84,12.71l-19.87-5.13-.2-.05-21.31-5.5c1.3-4.94,3.23-9.63,5.69-13.99l19.05,11.01c1.8-3.26,4.07-6.24,6.72-8.83,2.32-2.28,4.91-4.26,7.74-5.88,5.61-3.22,12.09-5.07,19.02-5.07Z"/>
  <path class="cls-1" d="M267.5,250c0,.25,0,.49-.02,.74,0,.25-.03,.49-.04,.74-.02,.24-.04,.49-.08,.73-.03,.24-.06,.47-.1,.7-.03,.17-.06,.34-.1,.5-.05,.29-.12,.59-.2,.87-.06,.26-.12,.51-.2,.76-.04,.17-.1,.34-.16,.51-.06,.19-.12,.37-.2,.55-.2,.56-.43,1.1-.7,1.62-.07,.15-.15,.3-.23,.45-.79,1.5-1.8,2.87-2.98,4.08-.15,.16-.3,.31-.46,.45-.17,.17-.34,.32-.51,.47-.15,.13-.3,.26-.45,.38-.61,.51-1.26,.97-1.93,1.37-.15,.1-.29,.19-.45,.27-.17,.1-.34,.2-.51,.28-.21,.12-.43,.22-.64,.32-.13,.07-.27,.13-.41,.19-.18,.08-.36,.16-.54,.23-.15,.06-.3,.12-.45,.18-.66,.25-1.34,.46-2.04,.63-1.31,.32-2.69,.49-4.1,.49-1.33,0-2.63-.15-3.88-.43-1.65-.37-3.22-.98-4.66-1.78-5.15-2.88-8.7-8.29-8.96-14.55,0-.24-.02-.49-.02-.74,0-1.67,.23-3.27,.67-4.8,2.08-7.34,8.84-12.71,16.84-12.71,9.66,0,17.5,7.84,17.5,17.51Z"/>
  <path class="cls-1" d="M246.12,267.07l-5.52,19.99-5.86,21.23c-5.18-1.35-10.09-3.38-14.64-5.99-4.46-2.55-8.56-5.65-12.21-9.22l15.57-15.57c2.29,2.22,4.85,4.14,7.64,5.73l.84-1.45,9.52-16.5c1.44,.81,3.01,1.41,4.66,1.78Z"/>
  <path class="cls-1" d="M308,266.27c-1.44,5.14-3.54,10.01-6.22,14.49-2.55,4.28-5.61,8.22-9.11,11.73l-15.56-15.56c-4.77,4.82-10.83,8.36-17.62,10.09l-5.4-20.01c.7-.17,1.38-.38,2.04-.63,.15-.05,.3-.12,.45-.18,.19-.07,.36-.14,.54-.23,.13-.05,.27-.12,.41-.19,.21-.1,.43-.2,.64-.32,.17-.09,.34-.19,.51-.28,.15-.08,.3-.17,.45-.27,.67-.4,1.32-.86,1.93-1.37,.15-.12,.3-.25,.45-.38,.18-.15,.35-.3,.51-.47,.16-.14,.31-.29,.46-.45,1.18-1.21,2.19-2.58,2.98-4.08,.08-.15,.16-.3,.23-.45,.27-.52,.5-1.06,.7-1.62,.07-.18,.13-.36,.2-.55,.06-.17,.12-.34,.16-.51,.08-.26,.15-.51,.2-.76,.08-.28,.14-.58,.2-.87,.04-.16,.07-.33,.1-.5,.04-.23,.07-.46,.1-.7,.04-.24,.06-.49,.08-.73,.02-.25,.04-.49,.04-.74h20.73c-.06,3.35-.56,6.61-1.43,9.7l21.22,5.84Z"/>
  <path class="cls-1" d="M288.22,250c0,.25,0,.5,0,.74h-20.73c0-.25,.02-.49,.02-.74,0-9.67-7.84-17.51-17.5-17.51v-20.72c7.02,0,13.58,1.89,19.23,5.19,11.36,6.63,18.99,18.95,18.99,33.04Z"/>
  <path class="cls-1" d="M168.83,272.39l-21.47,5.77-21,5.64-20.62,5.54c-3.35-12.31-5.17-25.25-5.23-38.6h65.31c.06,7.5,1.1,14.75,3.01,21.65Z"/>
  <path class="cls-1" d="M122.05,250.74h-21.54c.06,13.35,1.88,26.29,5.23,38.6l-22.86,6.15c-3.88-14.26-5.98-29.27-6.03-44.75,0-.25,0-.49,0-.74,0-15.11,1.93-29.76,5.57-43.73l22.92,5.93,21.04,5.43c-2.82,10.56-4.33,21.66-4.33,33.11Z"/>
  <path class="cls-1" d="M250,356.41v22.28c-11.58,0-22.8-1.53-33.47-4.43l-5.54,20.07-6.3,22.82c-14.53-3.93-28.31-9.7-41.05-17.05l11.83-20.51,10.45-18.1,11.1-19.21c7.89,4.54,16.43,8.11,25.44,10.5,8.78,2.36,18.02,3.61,27.54,3.61Z"/>
  <path class="cls-1" d="M292.68,292.49c-3.63,3.65-7.74,6.85-12.21,9.47-4.7,2.77-9.82,4.91-15.23,6.32h0c-4.87,1.28-9.96,1.95-15.23,1.95s-10.39-.67-15.26-1.95l5.86-21.23,5.52-19.99c1.24,.28,2.55,.43,3.88,.43,1.41,0,2.79-.17,4.1-.49l5.4,20.01c6.79-1.73,12.84-5.28,17.62-10.09l15.56,15.56Z"/>
  <path class="cls-1" d="M325.32,325.14c-6.47,6.5-13.78,12.17-21.77,16.82l-11.11-19.25c-6.48,3.8-13.53,6.75-20.97,8.7l-6.24-23.13c5.41-1.4,10.53-3.55,15.23-6.32,4.47-2.63,8.58-5.82,12.21-9.47l16.93,16.93,15.71,15.71Z"/>
  <path class="cls-1" d="M303.55,341.96c-8.13,4.75-16.96,8.45-26.28,10.92-8.7,2.31-17.84,3.53-27.27,3.53s-18.76-1.25-27.54-3.61l5.92-21.43,6.37-23.08c4.87,1.28,9.99,1.95,15.26,1.95s10.36-.67,15.23-1.95h0l6.24,23.13c7.44-1.95,14.49-4.91,20.97-8.7l11.11,19.25Z"/>
  <path class="cls-1" d="M283.06,374.37l5.43,20.1c-12.28,3.27-25.18,5.01-38.49,5.01v-43.08c9.43,0,18.57-1.22,27.27-3.53,9.32-2.47,18.15-6.17,26.28-10.92l11.1,19.22c-9.78,5.74-20.38,10.21-31.59,13.19Z"/>
  <path class="cls-1" d="M439.07,199.75l-21.68,5.83c-3.88-14.69-9.65-28.61-17.02-41.49-7.56-13.2-16.8-25.31-27.45-36.03-10.58-10.67-22.54-19.97-35.6-27.61-.06-.04-.13-.08-.2-.11l11.3-19.41,10.38-17.83c16.35,9.54,31.32,21.15,44.57,34.49,13.3,13.38,24.85,28.48,34.29,44.96l-17.87,10.32c8.35,14.56,14.88,30.28,19.27,46.88Z"/>
  <path class="cls-1" d="M303.54,158.04l-11.19,19.2-12.05,20.7-11.08,19.02c-5.65-3.3-12.21-5.19-19.23-5.19v-68.18c19.52,0,37.82,5.26,53.54,14.45Z"/>
  <path class="cls-1" d="M207.92,177.08c-6.28,3.64-12.06,8.06-17.17,13.15-5.47,5.41-10.21,11.59-14.03,18.34l-19.25-11.11c4.8-8.44,10.72-16.15,17.56-22.94l-14.86-14.86c7.79-7.69,16.57-14.38,26.12-19.88l10.49,18.09,11.15,19.22Z"/>
  <path class="cls-1" d="M250,143.59v68.18c-6.93,0-13.41,1.85-19.02,5.07l-11.04-19.05c4.61-2.66,9.62-4.73,14.89-6.09l-6.24-23.13c-7.33,1.92-14.27,4.8-20.68,8.51l-11.15-19.22c8.06-4.68,16.8-8.32,26.04-10.75,8.68-2.3,17.79-3.51,27.2-3.51Z"/>
  <path class="cls-1" d="M219.94,197.79l11.04,19.05c-2.83,1.62-5.43,3.6-7.74,5.88-2.64,2.58-4.91,5.56-6.72,8.83l-19.05-11.01-20.76-11.98c3.82-6.75,8.56-12.92,14.03-18.34,5.12-5.08,10.89-9.51,17.17-13.15,6.4-3.71,13.35-6.59,20.68-8.51l6.24,23.13c-5.28,1.37-10.28,3.43-14.89,6.09Z"/>
  <path class="cls-1" d="M176.71,208.56c-3.52,6.21-6.27,12.91-8.13,19.97l-21.52-5.55c-2.26,8.63-3.47,17.69-3.47,27.03,0,.25,0,.49,0,.74h-21.56c0-11.45,1.51-22.56,4.33-33.11,2.92-10.9,7.23-21.23,12.74-30.77l18.34,10.59,19.25,11.11Z"/>
  <path class="cls-1" d="M175.03,174.51c-6.84,6.79-12.76,14.5-17.56,22.94l-18.34-10.59c-5.51,9.54-9.82,19.87-12.74,30.77l-21.04-5.43c3.34-12.85,8.36-25.04,14.81-36.3,6.7-11.71,14.93-22.42,24.42-31.85l30.46,30.46Z"/>
  <path class="cls-1" d="M207.9,293.08l-1.13,1.13-15.8,15.8c-5.25-5.15-9.82-10.99-13.57-17.38l-19.25,11.11c-4.66-7.93-8.31-16.52-10.79-25.58l21.47-5.77,23.13-6.22c1.42,5.14,3.51,10,6.17,14.48,2.7,4.56,5.99,8.74,9.76,12.43Z"/>
  <path class="cls-1" d="M300.5,439.01c-16.11,4.29-33.03,6.58-50.5,6.58v20.63c-19.65,0-38.68-2.62-56.78-7.53l5.5-19.9,5.97-21.64,6.3-22.82,5.54-20.07c10.67,2.89,21.89,4.43,33.47,4.43v44.46c15.44,0,30.41-2.02,44.65-5.82l5.85,21.68Z"/>
  <path class="cls-1" d="M360.77,314.82c-5.5,9.48-12.18,18.19-19.83,25.93-7.82,7.89-16.65,14.78-26.28,20.43l-11.1-19.22c7.98-4.65,15.3-10.32,21.77-16.82l-15.71-15.71-16.93-16.93c3.5-3.5,6.56-7.44,9.11-11.73l20.74,11.98,19.25,11.11,18.99,10.96Z"/>
  <path class="cls-1" d="M402.98,402.8c-13.23,13.26-28.19,24.81-44.5,34.28l-10.32-17.87-11.23-19.44-11.83-20.5c11.24-6.55,21.56-14.51,30.69-23.67,8.99-9,16.84-19.15,23.3-30.2l20.5,11.83c-7.5,12.84-16.62,24.64-27.07,35.1l15.87,15.87,14.59,14.59Z"/>
  <path class="cls-1" d="M334.17,250c0,.25,0,.49,0,.74h-45.95c0-.24,0-.49,0-.74,0-14.1-7.63-26.42-18.99-33.04l11.08-19.02c9.29,5.41,16.99,13.24,22.25,22.63l20.74-11.98c6.93,12.22,10.88,26.35,10.88,41.41Z"/>
  <path class="cls-1" d="M399.48,250.74c-.07,13.58-1.94,26.73-5.4,39.23l-20.58-5.67-20.97-5.77c2.47-8.85,3.81-18.17,3.87-27.79h43.08Z"/>
  <path class="cls-1" d="M204.69,417.16l-5.97,21.64-5.5,19.9c-18.1-4.91-35.25-12.12-51.13-21.27-16.3-9.4-31.24-20.86-44.49-34.04l14.59-14.59,15.87-15.87,16.74-16.74c9.14,9.07,19.44,16.95,30.67,23.42l-11.83,20.51c12.75,7.34,26.52,13.12,41.05,17.05Z"/>
  <path class="cls-1" d="M234.74,308.28l-6.37,23.08-5.92,21.43c-9.01-2.4-17.55-5.96-25.44-10.5l11.11-19.25c-6.27-3.61-12.03-8-17.15-13.04l15.8-15.8,1.13-1.13c3.65,3.57,7.74,6.67,12.21,9.22,4.54,2.61,9.46,4.64,14.64,5.99Z"/>
  <path class="cls-1" d="M241.47,265.29l-9.52,16.5-.84,1.45c-2.79-1.59-5.35-3.51-7.64-5.73l-15.57,15.57c-3.77-3.69-7.06-7.87-9.76-12.43-2.66-4.48-4.75-9.34-6.17-14.48l21.25-5.71c-.88-3.1-1.37-6.36-1.44-9.72h20.72c.26,6.25,3.81,11.66,8.96,14.55Z"/>
  <path class="cls-1" d="M208.12,323.05l-11.11,19.25-11.1,19.21-10.45,18.1c-11.23-6.47-21.54-14.35-30.67-23.42l46.18-46.18c5.12,5.04,10.88,9.43,17.15,13.04Z"/>
</svg>